<?xml version="1.0" encoding="UTF-8"?>
<svg xmlns="http://www.w3.org/2000/svg" version="1.1" viewBox="0 0 55 55">
  <defs>
    <style>
      .cls-1 {
        fill: #fff;
      }
    </style>
  </defs>
  <!-- Generator: Adobe Illustrator 28.7.1, SVG Export Plug-In . SVG Version: 1.2.0 Build 142)  -->
  <g>
    <g id="Layer_1">
      <g>
        <path class="cls-1" d="M55,54.78H0V0h55v54.78ZM6.87,21.54c.02.1.04.17.06.23,1.09,3.85,2.19,7.7,3.28,11.55.03.11.07.16.19.15.67,0,1.34,0,2.01,0,.12,0,.16-.03.19-.15.26-1.29.54-2.58.8-3.87.31-1.55.61-3.1.92-4.65.03-.17.07-.33.1-.51.62,3.07,1.24,6.12,1.87,9.18h.21c.65,0,1.3,0,1.95,0,.17,0,.23-.05.28-.21.95-3.4,1.91-6.8,2.87-10.2.14-.5.28-1.01.43-1.51-.03,0-.05-.02-.07-.02-.78,0-1.57,0-2.35,0-.11,0-.12.05-.14.14-.19.84-.39,1.67-.58,2.51-.43,1.93-.86,3.87-1.29,5.8-.01.06-.03.11-.05.17-.24-1.05-.44-2.09-.66-3.13-.37-1.78-.74-3.55-1.1-5.33-.03-.13-.08-.16-.2-.16-.78,0-1.55,0-2.33,0-.04,0-.08,0-.14.01-.56,2.87-1.12,5.73-1.67,8.6-.03-.03-.04-.05-.05-.08-.23-1.1-.44-2.2-.68-3.29-.38-1.69-.78-3.38-1.16-5.08-.03-.12-.07-.17-.2-.16-.42,0-.85,0-1.27,0-.39,0-.79,0-1.21,0ZM38.23,21.55v11.93c.08,0,.15,0,.22,0,1.6,0,3.2.01,4.8,0,.62,0,1.25-.05,1.87-.14.9-.12,1.64-.55,2.2-1.28.61-.8.82-1.71.69-2.7-.13-1.04-.65-1.79-1.62-2.21-.05-.02-.09-.04-.16-.07.09-.05.15-.09.22-.13.49-.28.87-.66,1.03-1.21.1-.33.16-.69.17-1.03.06-1.23-.56-2.26-1.61-2.75-.57-.27-1.18-.39-1.81-.4-1.97-.01-3.94,0-5.91,0-.03,0-.06,0-.1,0ZM30.74,33.47c-.02-.06-.03-.1-.04-.14-1.37-3.87-2.74-7.75-4.11-11.62-.05-.13-.11-.17-.24-.17-.81,0-1.61,0-2.42,0-.17,0-.24.05-.29.21-1.28,3.61-2.57,7.22-3.86,10.82-.11.3-.21.59-.32.9.05,0,.08.01.11.01.79,0,1.58,0,2.37,0,.12,0,.15-.06.18-.15.24-.72.49-1.44.72-2.16.04-.12.1-.16.22-.16,1.35,0,2.7,0,4.05,0,.05,0,.11,0,.16,0,.02.07.05.13.07.19.22.71.45,1.41.66,2.12.04.12.09.16.21.16.79,0,1.58,0,2.37,0,.05,0,.09,0,.16,0ZM37.7,23.65v-2.1h-9.63v2.11h3.58v9.8h2.5v-9.81h3.55Z"/>
        <path d="M6.87,21.54c.42,0,.81,0,1.21,0,.42,0,.85,0,1.27,0,.13,0,.17.04.2.16.39,1.69.79,3.38,1.16,5.08.24,1.09.45,2.2.68,3.29,0,.03.01.05.05.08.56-2.86,1.12-5.73,1.67-8.6.06,0,.1-.01.14-.01.78,0,1.55,0,2.33,0,.12,0,.17.03.2.16.36,1.78.73,3.55,1.1,5.33.21,1.04.42,2.08.66,3.13.02-.06.03-.11.05-.17.43-1.93.86-3.87,1.29-5.8.19-.84.39-1.67.58-2.51.02-.09.04-.14.14-.14.78,0,1.57,0,2.35,0,.02,0,.03,0,.07.02-.14.51-.29,1.01-.43,1.51-.96,3.4-1.91,6.8-2.87,10.2-.05.16-.11.21-.28.21-.65-.01-1.3,0-1.95,0h-.21c-.62-3.07-1.24-6.12-1.87-9.18-.04.17-.07.34-.1.51-.31,1.55-.61,3.1-.92,4.65-.26,1.29-.53,2.58-.8,3.87-.02.12-.07.15-.19.15-.67,0-1.34,0-2.01,0-.12,0-.16-.04-.19-.15-1.09-3.85-2.18-7.7-3.28-11.55-.02-.07-.03-.14-.06-.23Z"/>
        <path d="M38.23,21.55s.07,0,.1,0c1.97,0,3.94,0,5.91,0,.62,0,1.23.13,1.81.4,1.05.49,1.67,1.52,1.61,2.75-.02.35-.07.7-.17,1.03-.16.55-.55.93-1.03,1.21-.07.04-.13.08-.22.13.07.03.12.05.16.07.97.42,1.49,1.17,1.62,2.21.13.99-.08,1.9-.69,2.7-.55.73-1.3,1.16-2.2,1.28-.62.08-1.25.13-1.87.14-1.6.02-3.2,0-4.8,0-.07,0-.14,0-.22,0v-11.93ZM40.6,31.4c.28,0,.54,0,.79,0,.88,0,1.76,0,2.63-.04.8-.04,1.29-.44,1.45-1.13.05-.24.07-.49.05-.73-.04-.55-.32-.96-.86-1.12-.33-.1-.69-.16-1.03-.17-.95-.02-1.9,0-2.85,0-.06,0-.12,0-.18,0v3.18ZM40.61,23.63v2.62h.21c.9,0,1.8,0,2.7,0,.24,0,.48-.03.71-.07.62-.12.93-.42,1.03-.99.03-.15.02-.3.01-.45-.03-.51-.31-.86-.8-.98-.25-.06-.5-.11-.76-.12-1-.02-2.01-.02-3.01-.02-.03,0-.07,0-.11.02Z"/>
        <path d="M30.74,33.47c-.07,0-.12,0-.16,0-.79,0-1.58,0-2.37,0-.12,0-.17-.04-.21-.16-.22-.71-.44-1.41-.66-2.12-.02-.06-.04-.12-.07-.19-.06,0-.11,0-.16,0-1.35,0-2.7,0-4.05,0-.13,0-.18.04-.22.16-.23.72-.48,1.44-.72,2.16-.03.09-.06.15-.18.15-.79,0-1.58,0-2.37,0-.03,0-.06,0-.11-.01.11-.31.21-.6.32-.9,1.29-3.61,2.57-7.21,3.86-10.82.05-.15.12-.21.29-.21.81.01,1.61,0,2.42,0,.13,0,.2.03.24.17,1.37,3.88,2.74,7.75,4.11,11.62.01.04.02.08.04.14ZM25.11,24.33s-.03,0-.04,0c-.5,1.54-1.01,3.08-1.51,4.62h3.02c-.49-1.55-.98-3.09-1.47-4.63Z"/>
        <path d="M37.7,23.65h-3.55v9.81h-2.5v-9.8h-3.58v-2.11h9.63v2.1Z"/>
        <path class="cls-1" d="M40.6,31.4v-3.18c.07,0,.13,0,.18,0,.95,0,1.9-.01,2.85,0,.35,0,.7.06,1.03.17.53.16.82.57.86,1.12.02.24,0,.49-.05.73-.15.69-.65,1.09-1.45,1.13-.88.04-1.75.03-2.63.04-.26,0-.51,0-.79,0Z"/>
        <path class="cls-1" d="M40.61,23.63s.07-.02.11-.02c1,0,2.01,0,3.01.02.25,0,.51.06.76.12.49.12.77.47.8.98,0,.15.01.3-.01.45-.1.57-.41.87-1.03.99-.23.05-.47.07-.71.07-.9,0-1.8,0-2.7,0h-.21v-2.62Z"/>
        <path class="cls-1" d="M25.11,24.33c.49,1.54.97,3.07,1.47,4.63h-3.02c.51-1.55,1.01-3.09,1.51-4.62.01,0,.03,0,.04,0Z"/>
      </g>
    </g>
  </g>
</svg>